<svg xmlns="http://www.w3.org/2000/svg" width="1280" height="720" viewBox="0 0 1280 720">
  <rect width="1280" height="720" fill="#f4f2ea"/>
  <text x="56" y="62" fill="#b8562f" font-family="Arial" font-size="14" font-weight="700">OFFLINE CONTRACTOR CALCULATOR</text>
  <text x="56" y="100" fill="#101418" font-family="Arial" font-size="38" font-weight="900">ConcreteMix Pro</text>
  <rect x="56" y="136" width="760" height="210" rx="8" fill="#fff" stroke="#d7d2c2"/>
  <rect x="842" y="136" width="382" height="258" rx="8" fill="#e5efe6" stroke="#1f7a5a"/>
  <text x="88" y="184" fill="#101418" font-family="Arial" font-size="24" font-weight="900">Main calculator</text>
  <rect x="88" y="218" width="208" height="56" rx="6" fill="#eef1e8"/>
  <rect x="320" y="218" width="208" height="56" rx="6" fill="#eef1e8"/>
  <rect x="552" y="218" width="208" height="56" rx="6" fill="#eef1e8"/>
  <text x="112" y="254" fill="#101418" font-family="Arial" font-size="22" font-weight="900">4 m</text>
  <text x="344" y="254" fill="#101418" font-family="Arial" font-size="22" font-weight="900">3 m</text>
  <text x="576" y="254" fill="#101418" font-family="Arial" font-size="22" font-weight="900">0.1 m</text>
  <rect x="88" y="294" width="672" height="34" rx="6" fill="#1f7a5a"/>
  <text x="336" y="317" fill="#fff" font-family="Arial" font-size="15" font-weight="900">Domestic slab · Ratio 1 : 1.5 : 3</text>
  <text x="874" y="186" fill="#101418" font-family="Arial" font-size="24" font-weight="900">Result</text>
  <text x="874" y="250" fill="#101418" font-family="Arial" font-size="46" font-weight="900">1.2 m³</text>
  <text x="874" y="285" fill="#4b5563" font-family="Arial" font-size="18" font-weight="700">Wet volume · 1,200 liters · 42.38 ft³</text>
  <rect x="874" y="322" width="82" height="40" rx="6" fill="#101418"/>
  <rect x="974" y="322" width="82" height="40" rx="6" fill="#101418"/>
  <rect x="1074" y="322" width="82" height="40" rx="6" fill="#101418"/>
  <text x="900" y="348" fill="#fff" font-family="Arial" font-size="14" font-weight="900">Save</text>
  <text x="1003" y="348" fill="#fff" font-family="Arial" font-size="14" font-weight="900">PDF</text>
  <text x="1098" y="348" fill="#fff" font-family="Arial" font-size="14" font-weight="900">Share</text>
  <rect x="56" y="374" width="760" height="238" rx="8" fill="#fff" stroke="#d7d2c2"/>
  <text x="88" y="422" fill="#101418" font-family="Arial" font-size="24" font-weight="900">Materials and costs</text>
  <text x="88" y="482" fill="#101418" font-family="Arial" font-size="34" font-weight="900">9 bags</text>
  <text x="270" y="482" fill="#101418" font-family="Arial" font-size="34" font-weight="900">0.42 m³ sand</text>
  <text x="520" y="482" fill="#101418" font-family="Arial" font-size="34" font-weight="900">216 L water</text>
  <text x="88" y="552" fill="#101418" font-family="Arial" font-size="34" font-weight="900">$0.00</text>
  <text x="270" y="552" fill="#4b5563" font-family="Arial" font-size="18" font-weight="700">Offline prices are saved locally.</text>
</svg>
