<svg xmlns="http://www.w3.org/2000/svg" width="390" height="844" viewBox="0 0 390 844">
  <rect width="390" height="844" fill="#f4f2ea"/>
  <rect x="14" y="18" width="362" height="70" rx="8" fill="#121412"/>
  <text x="28" y="45" fill="#b8562f" font-family="Arial" font-size="11" font-weight="700">OFFLINE CONTRACTOR CALCULATOR</text>
  <text x="28" y="72" fill="#f7f5ed" font-family="Arial" font-size="26" font-weight="900">ConcreteMix Pro</text>
  <rect x="14" y="108" width="362" height="204" rx="8" fill="#fff" stroke="#d7d2c2"/>
  <text x="30" y="142" fill="#101418" font-family="Arial" font-size="16" font-weight="900">Slab dimensions</text>
  <rect x="30" y="164" width="100" height="50" rx="6" fill="#eef1e8"/>
  <rect x="144" y="164" width="100" height="50" rx="6" fill="#eef1e8"/>
  <rect x="258" y="164" width="100" height="50" rx="6" fill="#eef1e8"/>
  <text x="48" y="196" fill="#101418" font-family="Arial" font-size="20" font-weight="900">4</text>
  <text x="162" y="196" fill="#101418" font-family="Arial" font-size="20" font-weight="900">3</text>
  <text x="276" y="196" fill="#101418" font-family="Arial" font-size="20" font-weight="900">0.1</text>
  <rect x="30" y="238" width="328" height="48" rx="6" fill="#1f7a5a"/>
  <text x="116" y="269" fill="#fff" font-family="Arial" font-size="16" font-weight="900">Domestic slab · 20 MPa</text>
  <rect x="14" y="330" width="362" height="182" rx="8" fill="#e5efe6" stroke="#1f7a5a"/>
  <text x="30" y="364" fill="#101418" font-family="Arial" font-size="20" font-weight="900">Result</text>
  <text x="30" y="412" fill="#101418" font-family="Arial" font-size="34" font-weight="900">1.2 m³</text>
  <text x="30" y="446" fill="#4b5563" font-family="Arial" font-size="16" font-weight="700">Wet volume · 1,200 L</text>
  <rect x="30" y="466" width="96" height="30" rx="5" fill="#101418"/>
  <rect x="144" y="466" width="96" height="30" rx="5" fill="#101418"/>
  <rect x="258" y="466" width="96" height="30" rx="5" fill="#101418"/>
  <text x="54" y="487" fill="#fff" font-family="Arial" font-size="13" font-weight="900">Save</text>
  <text x="174" y="487" fill="#fff" font-family="Arial" font-size="13" font-weight="900">PDF</text>
  <text x="282" y="487" fill="#fff" font-family="Arial" font-size="13" font-weight="900">Share</text>
  <rect x="14" y="530" width="362" height="158" rx="8" fill="#fff" stroke="#d7d2c2"/>
  <text x="30" y="564" fill="#101418" font-family="Arial" font-size="18" font-weight="900">Materials</text>
  <text x="30" y="606" fill="#101418" font-family="Arial" font-size="26" font-weight="900">9 bags</text>
  <text x="190" y="606" fill="#101418" font-family="Arial" font-size="26" font-weight="900">0.42 m³</text>
  <text x="30" y="646" fill="#101418" font-family="Arial" font-size="26" font-weight="900">0.84 m³</text>
  <text x="190" y="646" fill="#101418" font-family="Arial" font-size="26" font-weight="900">216 L</text>
</svg>
